{"title":"Mia.Madre.2015.BRRip.x264.HORiZON-ArtSubs","uid":12302496,"size":1533023420,"categoryP":"video","categoryS":"movies","magnet":"?xt=urn:btih:6dddb6ac7758d8bea2add961d1a2b83ec6b0e460&amp;dn=Mia.Madre.2015.BRRip.x264.HORiZON-ArtSubs&amp;tr=udp%3A%2F%2Ftracker.openbittorrent.com%3A80&amp;tr=udp%3A%2F%2Fopen.demonii.com%3A1337&amp;tr=udp%3A%2F%2Ftracker.coppersurfer.tk%3A6969&amp;tr=udp%3A%2F%2Fexodus.desync.com%3A6969","seeders":1,"leechers":0,"uploader":"lletaif","files":1,"time":1440723676,"description":"General\nUnique ID                                : 183241182615731738874800475013052231092 (0x89DAF7D3127E2F8D81505BCD5C35EDB4)\nComplete name                            : Mia.Madre.2015.BRRip.x264.HORiZON-ArtSubs.mkv\nFormat                                   : Matroska\nFormat version                           : Version 2\nFile size                                : 1.43 GiB\nDuration                                 : 1h 47mn\nOverall bit rate mode                    : Variable\nOverall bit rate                         : 1 908 Kbps\nEncoded date                             : UTC 2015-08-27 22:34:44\nWriting application                      : DVDFab 9.2.0.1\nWriting library                          : libebml v0.7.8 + libmatroska v0.8.1\n\nVideo\nID                                       : 1\nFormat                                   : AVC\nFormat/Info                              : Advanced Video Codec\nFormat profile                           : &lt;a class=&quot;__cf_email__&quot; href=&quot;/cdn-cgi/l/email-protection&quot; data-cfemail=&quot;c088a9a7a8808cf4eef1&quot;&gt;[email&amp;#160;protected]&lt;/a&gt;&lt;script data-cfhash='f9e31' type=&quot;text/javascript&quot;&gt;\n/* &lt;![CDATA[ */!function(){try{var t=&quot;currentScript&quot;in document?document.currentScript:function(){for(var t=document.getElementsByTagName(&quot;script&quot;),e=t.length;e--;)if(t[e].getAttribute(&quot;data-cfhash&quot;))return t[e]}();if(t&amp;&amp;t.previousSibling){var e,r,n,i,c=t.previousSibling,a=c.getAttribute(&quot;data-cfemail&quot;);if(a){for(e=&quot;&quot;,r=parseInt(a.substr(0,2),16),n=2;a.length-n;n+=2)i=parseInt(a.substr(n,2),16)^r,e+=String.fromCharCode(i);e=document.createTextNode(e),c.parentNode.replaceChild(e,c)}t.parentNode.removeChild(t);}}catch(u){}}()/* ]]&gt; */&lt;/script&gt;\nFormat settings, CABAC                   : Yes\nFormat settings, ReFrames                : 2 frames\nCodec ID                                 : V_MPEG4/ISO/AVC\nDuration                                 : 1h 47mn\nBit rate mode                            : Variable\nBit rate                                 : 1 422 Kbps\nMaximum bit rate                         : 2 257 Kbps\nWidth                                    : 1 280 pixels\nHeight                                   : 692 pixels\nDisplay aspect ratio                     : 1.85:1\nFrame rate mode                          : Constant\nFrame rate                               : 23.976 fps\nColor space                              : YUV\nChroma subsampling                       : 4:2:0\nBit depth                                : 8 bits\nScan type                                : Progressive\nBits/(Pixel*Frame)                       : 0.067\nStream size                              : 1.06 GiB (75%)\nDefault                                  : Yes\nForced                                   : No\n\nAudio\nID                                       : 2\nFormat                                   : AC-3\nFormat/Info                              : Audio Coding 3\nMode extension                           : CM (complete main)\nFormat settings, Endianness              : Big\nCodec ID                                 : A_AC3\nDuration                                 : 1h 47mn\nBit rate mode                            : Constant\nBit rate                                 : 448 Kbps\nChannel(s)                               : 6 channels\nChannel positions                        : Front: L C R, Side: L R, LFE\nSampling rate                            : 48.0 KHz\nBit depth                                : 16 bits\nCompression mode                         : Lossy\nStream size                              : 343 MiB (23%)\nLanguage                                 : Italian\nDefault                                  : No\nForced                                   : No\n\nMenu\n00:00:00.000                             : en:00:00:00.000\n00:06:10.202                             : en:00:06:10.203\n00:16:13.639                             : en:00:16:13.639\n00:21:02.636                             : en:00:21:02.636\n00:30:31.329                             : en:00:30:31.329\n00:33:05.650                             : en:00:33:05.650\n00:40:17.081                             : en:00:40:17.081\n00:42:44.937                             : en:00:42:44.937\n00:49:01.021                             : en:00:49:01.021\n00:56:14.079                             : en:00:56:14.079\n01:10:28.890                             : en:01:10:28.891\n01:16:03.267                             : en:01:16:03.267\n01:23:38.138                             : en:01:23:38.138\n01:28:37.229                             : en:01:28:37.229\n01:35:48.533                             : en:01:35:48.534\n01:40:53.631                             : en:01:40:53.631","torrent":{"xt":"urn:btih:6dddb6ac7758d8bea2add961d1a2b83ec6b0e460","amp;dn":"Mia.Madre.2015.BRRip.x264.HORiZON-ArtSubs","amp;tr":["udp%3A%2F%2Ftracker.openbittorrent.com%3A80","udp%3A%2F%2Fopen.demonii.com%3A1337","udp%3A%2F%2Ftracker.coppersurfer.tk%3A6969","udp%3A%2F%2Fexodus.desync.com%3A6969"],"infoHash":"6dddb6ac7758d8bea2add961d1a2b83ec6b0e460","infoHashBuffer":{"type":"Buffer","data":[109,221,182,172,119,88,216,190,162,173,217,97,209,162,184,62,198,176,228,96]},"announce":[],"urlList":[]}}